<svg width="20" height="20" viewBox="0 0 20 20" fill="none" xmlns="http://www.w3.org/2000/svg">
<path fill-rule="evenodd" clip-rule="evenodd" d="M10.0013 6.45768C9.08083 6.45768 8.33464 7.20387 8.33464 8.12435C8.33464 9.04482 9.08083 9.79102 10.0013 9.79102C10.9218 9.79102 11.668 9.04482 11.668 8.12435C11.668 7.20387 10.9218 6.45768 10.0013 6.45768ZM6.66797 8.12435C6.66797 6.2834 8.16035 4.79102 10.0013 4.79102C11.8423 4.79102 13.3346 6.2834 13.3346 8.12435C13.3346 9.9653 11.8423 11.4577 10.0013 11.4577C8.16035 11.4577 6.66797 9.9653 6.66797 8.12435Z" fill="#17696A"/>
<path fill-rule="evenodd" clip-rule="evenodd" d="M10.0013 2.70768C6.98502 2.70768 4.58464 5.07107 4.58464 7.93204C4.58464 10.2644 5.98631 12.62 7.5185 14.4729C8.27068 15.3825 9.02499 16.1359 9.59169 16.662C9.74329 16.8027 9.88106 16.9268 10.0013 17.0328C10.1215 16.9268 10.2593 16.8027 10.4109 16.662C10.9776 16.1359 11.7319 15.3825 12.4841 14.4729C14.0163 12.62 15.418 10.2644 15.418 7.93204C15.418 5.07107 13.0176 2.70768 10.0013 2.70768ZM10.0013 18.1244C9.48561 18.779 9.48542 18.7788 9.48521 18.7786L9.48314 18.777L9.47839 18.7732L9.46225 18.7604C9.44857 18.7494 9.42913 18.7337 9.4043 18.7135C9.35466 18.673 9.28346 18.6141 9.19378 18.5381C9.01449 18.386 8.76091 18.1648 8.45779 17.8835C7.85262 17.3217 7.04443 16.5149 6.2341 15.535C4.64129 13.6089 2.91797 10.8683 2.91797 7.93204C2.91797 4.10188 6.11403 1.04102 10.0013 1.04102C13.8886 1.04102 17.0846 4.10188 17.0846 7.93204C17.0846 10.8683 15.3613 13.6089 13.7685 15.535C12.9582 16.5149 12.15 17.3217 11.5448 17.8835C11.2417 18.1648 10.9881 18.386 10.8088 18.5381C10.7191 18.6141 10.6479 18.673 10.5983 18.7135C10.5735 18.7337 10.554 18.7494 10.5404 18.7604L10.5242 18.7732L10.5195 18.777L10.5179 18.7782C10.5177 18.7784 10.517 18.779 10.0013 18.1244ZM10.0013 18.1244L10.517 18.779C10.2145 19.0173 9.78771 19.0169 9.48521 18.7786L10.0013 18.1244Z" fill="#17696A"/>
</svg>
