<svg width="24" height="24" viewBox="0 0 24 24" fill="none" xmlns="http://www.w3.org/2000/svg">
<path fill-rule="evenodd" clip-rule="evenodd" d="M12.784 4.17067C12.2705 4.03165 11.7294 4.03165 11.2159 4.17067C10.6814 4.3154 10.163 4.69458 8.68467 5.84437L6.08467 7.8666C5.13323 8.60661 4.81379 8.86606 4.58799 9.17135C4.371 9.46474 4.20935 9.79524 4.11099 10.1466C4.00864 10.5123 3.99995 10.9238 3.99995 12.1291V18.749C3.99995 19.5195 4.01081 19.6831 4.04301 19.7892C4.13996 20.1088 4.39007 20.359 4.70967 20.4559C4.81583 20.4881 4.97942 20.499 5.74995 20.499H6.37495C6.50289 20.499 6.53068 20.4987 6.54902 20.4978C7.06272 20.4725 7.47351 20.0617 7.49875 19.548C7.49965 19.5297 7.49995 19.5019 7.49995 19.374V16.499C7.49995 14.0137 9.51467 11.999 12 11.999C14.4852 11.999 16.5 14.0137 16.5 16.499V19.374C16.5 19.5019 16.5003 19.5297 16.5012 19.548C16.5264 20.0617 16.9372 20.4725 17.4509 20.4978C17.4692 20.4987 17.497 20.499 17.625 20.499H18.25C19.0205 20.499 19.1841 20.4881 19.2902 20.4559C19.6098 20.359 19.8599 20.1088 19.9569 19.7892C19.9891 19.6831 20 19.5195 20 18.749V12.1291C20 10.9238 19.9913 10.5123 19.8889 10.1466C19.7906 9.79524 19.6289 9.46474 19.4119 9.17135C19.1861 8.86606 18.8667 8.60661 17.9152 7.8666L15.3152 5.84437C13.8369 4.69458 13.3185 4.3154 12.784 4.17067ZM10.6932 2.24018C11.549 2.00848 12.4509 2.00848 13.3067 2.24018C14.28 2.50371 15.134 3.1686 16.3729 4.13323C16.4289 4.17677 16.4856 4.22092 16.5431 4.26567L19.1431 6.28789C19.1791 6.31584 19.2145 6.3434 19.2495 6.3706C20.0538 6.99576 20.6103 7.42824 21.0199 7.98206C21.3815 8.47103 21.6509 9.02187 21.8149 9.60754C22.0006 10.2709 22.0003 10.9756 22 11.9944C22 12.0387 22 12.0836 22 12.1291V18.749C22 18.7913 22 18.8333 22.0001 18.8748C22.0007 19.4461 22.0013 19.9395 21.8708 20.3698C21.5799 21.3286 20.8296 22.0789 19.8708 22.3698C19.4405 22.5003 18.9471 22.4997 18.3758 22.4991C18.3342 22.499 18.2923 22.499 18.25 22.499L17.604 22.499C17.5088 22.499 17.4271 22.499 17.3527 22.4953C15.8116 22.4196 14.5793 21.1873 14.5036 19.6462C14.4999 19.5718 14.4999 19.4901 14.4999 19.3949L14.5 16.499C14.5 15.1182 13.3807 13.999 12 13.999C10.6192 13.999 9.49995 15.1182 9.49995 16.499L9.49995 19.3949C9.49997 19.4901 9.49999 19.5718 9.49634 19.6462C9.42063 21.1873 8.18827 22.4196 6.64715 22.4953C6.57282 22.499 6.49106 22.499 6.3959 22.499L5.74995 22.499C5.70759 22.499 5.66565 22.499 5.62412 22.4991C5.05285 22.4997 4.55944 22.5003 4.1291 22.3698C3.17029 22.0789 2.41998 21.3286 2.12913 20.3698C1.99859 19.9395 1.99917 19.4461 1.99985 18.8748C1.9999 18.8333 1.99995 18.7913 1.99995 18.749V12.1291C1.99995 12.0836 1.99994 12.0387 1.99992 11.9943C1.99958 10.9756 1.99934 10.2709 2.18502 9.60754C2.34896 9.02187 2.61837 8.47103 2.98002 7.98206C3.38964 7.42824 3.94607 6.99576 4.75041 6.3706C4.7854 6.3434 4.82085 6.31584 4.85679 6.28789L7.45679 4.26567C7.51433 4.22091 7.57104 4.17676 7.62696 4.13322C8.86594 3.16859 9.71993 2.50371 10.6932 2.24018Z" fill="#1E212C"/>
</svg>
