<svg width="20" height="20" viewBox="0 0 20 20" fill="none" xmlns="http://www.w3.org/2000/svg">
<path fill-rule="evenodd" clip-rule="evenodd" d="M7.08464 2.43424C6.39428 2.43424 5.83464 2.99389 5.83464 3.68424V16.3145C5.83464 17.0048 6.39428 17.5645 7.08464 17.5645H12.918C13.6083 17.5645 14.168 17.0048 14.168 16.3145V3.68424C14.168 2.99389 13.6083 2.43424 12.918 2.43424H12.8485L12.6455 2.92129C12.5161 3.2318 12.2127 3.43406 11.8763 3.43406H8.1263C7.78991 3.43406 7.4865 3.2318 7.35709 2.92129L7.15412 2.43424H7.08464ZM4.16797 3.68424C4.16797 2.07341 5.47381 0.767578 7.08464 0.767578H12.918C14.5288 0.767578 15.8346 2.07341 15.8346 3.68424V16.3145C15.8346 17.9253 14.5288 19.2311 12.918 19.2311H7.08464C5.4738 19.2311 4.16797 17.9253 4.16797 16.3145V3.68424Z" fill="#17696A"/>
</svg>
