<svg width="24" height="24" viewBox="0 0 24 24" fill="none" xmlns="http://www.w3.org/2000/svg">
<path fill-rule="evenodd" clip-rule="evenodd" d="M16.5861 5.66988C16.8758 5.19967 17.4918 5.05334 17.962 5.34304C20.3077 6.78823 21.875 9.38306 21.875 12.3448C21.875 15.3065 20.3077 17.9014 17.962 19.3466C17.4918 19.6363 16.8758 19.4899 16.5861 19.0197C16.2964 18.5495 16.4427 17.9335 16.913 17.6438C18.6924 16.5475 19.875 14.5838 19.875 12.3448C19.875 10.1058 18.6924 8.14214 16.913 7.04581C16.4427 6.75611 16.2964 6.14008 16.5861 5.66988Z" fill="#1E212C"/>
<path fill-rule="evenodd" clip-rule="evenodd" d="M15.9921 9.97316C16.3525 9.5546 16.9839 9.5074 17.4024 9.86772C18.0803 10.4513 18.4375 11.3911 18.4375 12.3443C18.4375 13.2976 18.0803 14.2374 17.4024 14.8209C16.9839 15.1813 16.3525 15.134 15.9921 14.7155C15.6318 14.2969 15.679 13.6655 16.0976 13.3052C16.2448 13.1785 16.4375 12.8445 16.4375 12.3443C16.4375 11.8442 16.2448 11.5101 16.0976 11.3834C15.679 11.0231 15.6318 10.3917 15.9921 9.97316Z" fill="#1E212C"/>
<path fill-rule="evenodd" clip-rule="evenodd" d="M5 8.87558C4.44772 8.87558 4 9.32329 4 9.87558V14.1256C4 14.6779 4.44772 15.1256 5 15.1256H6.4375C6.98978 15.1256 7.4375 15.5733 7.4375 16.1256C7.4375 16.6779 6.98978 17.1256 6.4375 17.1256H5C3.34315 17.1256 2 15.7824 2 14.1256V9.87558C2 8.21872 3.34315 6.87558 5 6.87558H6.4375C6.98978 6.87558 7.4375 7.32329 7.4375 7.87558C7.4375 8.42786 6.98978 8.87558 6.4375 8.87558H5Z" fill="#1E212C"/>
<path fill-rule="evenodd" clip-rule="evenodd" d="M13 3.93929C13 3.67885 12.6909 3.54212 12.4982 3.71731L7.11017 8.61552L5.76483 7.13564L11.1529 2.23743C12.6303 0.894284 15 1.94257 15 3.93929V20.0619C15 22.0586 12.6303 23.1069 11.1529 21.7637L5.76483 16.8655L7.11017 15.3856L12.4982 20.2838C12.6909 20.459 13 20.3223 13 20.0619V3.93929Z" fill="#1E212C"/>
</svg>
