<svg width="24" height="24" viewBox="0 0 24 24" fill="none" xmlns="http://www.w3.org/2000/svg">
<path fill-rule="evenodd" clip-rule="evenodd" d="M5 8.87558C4.44772 8.87558 4 9.32329 4 9.87558V14.1256C4 14.6779 4.44772 15.1256 5 15.1256H6.4375C6.98978 15.1256 7.4375 15.5733 7.4375 16.1256C7.4375 16.6779 6.98978 17.1256 6.4375 17.1256H5C3.34315 17.1256 2 15.7824 2 14.1256V9.87558C2 8.21872 3.34315 6.87558 5 6.87558H6.4375C6.98978 6.87558 7.4375 7.32329 7.4375 7.87558C7.4375 8.42786 6.98978 8.87558 6.4375 8.87558H5Z" fill="#1E212C"/>
<path fill-rule="evenodd" clip-rule="evenodd" d="M13 3.93929C13 3.67885 12.6909 3.54212 12.4982 3.71731L7.11017 8.61552L5.76483 7.13564L11.1529 2.23743C12.6303 0.894284 15 1.94257 15 3.93929V20.0619C15 22.0586 12.6303 23.1069 11.1529 21.7637L5.76483 16.8655L7.11017 15.3856L12.4982 20.2838C12.6909 20.459 13 20.3223 13 20.0619V3.93929Z" fill="#1E212C"/>
<path fill-rule="evenodd" clip-rule="evenodd" d="M16.0429 9.23097C16.4334 8.84045 17.0666 8.84045 17.4571 9.23097L21.5821 13.356C21.9726 13.7465 21.9726 14.3797 21.5821 14.7702C21.1916 15.1607 20.5584 15.1607 20.1679 14.7702L16.0429 10.6452C15.6524 10.2547 15.6524 9.62149 16.0429 9.23097Z" fill="#1E212C"/>
<path fill-rule="evenodd" clip-rule="evenodd" d="M21.5821 9.23097C21.1916 8.84045 20.5584 8.84045 20.1679 9.23097L16.0429 13.356C15.6524 13.7465 15.6524 14.3797 16.0429 14.7702C16.4334 15.1607 17.0666 15.1607 17.4571 14.7702L21.5821 10.6452C21.9726 10.2547 21.9726 9.62149 21.5821 9.23097Z" fill="#1E212C"/>
</svg>
